<?xml version="1.0" encoding="utf-8"?>
<!-- Generator: Adobe Illustrator 28.0.0, SVG Export Plug-In . SVG Version: 6.00 Build 0)  -->
<svg version="1.1" id="Capa_1" xmlns="http://www.w3.org/2000/svg" xmlns:xlink="http://www.w3.org/1999/xlink" x="0px" y="0px"
	 viewBox="0 0 657.4 660.5" style="enable-background:new 0 0 657.4 660.5;" xml:space="preserve">
<style type="text/css">
	.st0{fill:#FFFFFF;}
</style>
<path class="st0" d="M489.5,8.3c0,41.9-0.1,82,0.1,122.1c0,9.3-4.8,11.1-12.6,11.1c-20.6-0.2-41.3-0.2-62,0
	c-22.7,0.2-31.5,8.7-32.5,30.8c-2.3,49.5-2.3,49.5,47.6,49.5c18.9,0,37.7,0,57.7,0c0,9.5,0.5,17.1-0.1,24.6c-1.5,20-3.8,40-5.3,60
	c-1.7,22.5-1.5,22.5-24.9,22.5c-19.5,0-39.1,0.8-58.6-0.3c-13.7-0.8-16.9,4.4-16.9,17.3c0.5,94.3,0.2,188.6,0.2,282.9
	c0,6.5,0,13.1,0,20.6c-45.1,0-88.4,0-134,0c0-6.9,0-13.4,0-19.9c0-93.8-0.3-187.5,0.3-281.3c0.1-15.2-3.9-21-19.6-19.7
	c-16.1,1.3-32.4,0-48.5,0.4c-9.4,0.3-12.9-3.4-12.7-12.8c0.4-27.3,0.4-54.7,0-82c-0.1-9.5,3.6-12.8,12.9-12.6
	c17.3,0.4,34.7-0.6,51.9,0.3c12.8,0.7,16.2-4.3,16-16.5c-0.5-30.7-1.3-61.5,0.9-92c2.7-37.9,17.2-70.9,53.6-88.4
	c15.8-7.6,33.4-15.2,50.5-16C398,6.8,442.6,8.3,489.5,8.3z"/>
</svg>
