<?xml version="1.0" encoding="utf-8"?>
<!-- Generator: Adobe Illustrator 28.0.0, SVG Export Plug-In . SVG Version: 6.00 Build 0)  -->
<svg version="1.1" id="Capa_1" xmlns="http://www.w3.org/2000/svg" xmlns:xlink="http://www.w3.org/1999/xlink" x="0px" y="0px"
	 viewBox="0 0 657.4 660.5" style="enable-background:new 0 0 657.4 660.5;" xml:space="preserve">
<style type="text/css">
	.st0{fill:#FFFFFF;}
</style>
<g>
	<path class="st0" d="M649.1,331.6c0,45,2,90-0.4,134.9c-4.8,91-49.1,161.3-147.4,177.9c-17.4,2.9-35.1,5.6-52.7,5.7
		c-86.6,0.4-173.4,3-259.9-1.2c-84.5-4.1-155.1-45.1-172.9-144.8c-3.9-21.7-6-43.9-6.1-65.9c-0.6-81.6-2.4-163.3,0.9-244.8
		c3.7-90,48.3-160,146.3-176.9c17.9-3.1,36.2-5.8,54.3-5.8c85.5-0.4,171.2-2.6,256.5,1c87.9,3.7,160.4,46.7,174.9,145.9
		c7.4,50.6,5,102.7,7,154.1c0.2,6.6,0,13.3,0,20C649.4,331.6,649.2,331.6,649.1,331.6z M329.3,590.3c42.2,0,84.6,2,126.6-0.8
		c24.9-1.6,51.1-6.8,73.5-17.3c45.9-21.4,58.6-65.1,59.5-111.1c1.7-87.1,1.7-174.4-0.3-261.5c-0.5-23.6-7.3-48.7-17.5-70.1
		c-21.5-45-64.5-57.8-109.9-58.7c-87.7-1.7-175.5-1.7-263.2,0.3c-23.1,0.5-47.6,7-68.6,17C83.7,110.1,70.9,153.5,70,199.5
		c-1.7,87.1-1.4,174.3-0.1,261.5c0.5,35.3,8.9,69.3,36.2,95.4c27.1,26,61.2,32.7,96.6,33.7C244.9,591.2,287.1,590.3,329.3,590.3z"/>
	<path class="st0" d="M329.1,164.8c91-0.1,165.8,74.2,166,164.8c0.2,91.7-74.5,166.5-166.1,166.4c-90.8-0.1-165.2-74.7-165.1-165.6
		C163.8,239.5,238.3,164.9,329.1,164.8z M328.5,436c58.5,0.2,106.4-47,106.5-105c0.1-57.7-46.9-105.7-103.8-106.1
		c-58.9-0.4-107.1,46.5-107.4,104.2C223.6,387.8,270.6,435.8,328.5,436z"/>
	<path class="st0" d="M463.8,158.5c0.7-22.4,18-38.3,40.3-37.1c22.1,1.2,38.3,19.1,37.2,40.9c-1.2,22.7-17.5,37.3-40.8,36.6
		C477.9,198.1,463.1,181.8,463.8,158.5z"/>
</g>
</svg>
