<?xml version="1.0" encoding="utf-8"?>
<!-- Generator: Adobe Illustrator 25.4.1, SVG Export Plug-In . SVG Version: 6.00 Build 0)  -->
<svg version="1.1" id="Layer_1" xmlns="http://www.w3.org/2000/svg" xmlns:xlink="http://www.w3.org/1999/xlink" x="0px" y="0px"
	 viewBox="0 0 549.86 155.18" style="enable-background:new 0 0 549.86 155.18;" xml:space="preserve">
<style type="text/css">
	.st0{fill:#6259A3;}
</style>
<g>
	<g>
		<path class="st0" d="M37.97,67.97V22.72H7.28V1.74h87.27v20.98H63.87v45.25H38.03H37.97z"/>
		<path class="st0" d="M102.9,1.74h77.56v16.93h-51.73v8.47h51.73v15.31h-51.73v8.47h51.73v16.99H102.9V1.74z"/>
		<path class="st0" d="M217.68,1.74h30.69l35.54,66.23h-29.07l-5.23-11.33h-33.18l-5.23,11.33h-29.07L217.68,1.74z M223.97,40.46
			h18.18l-9.09-19.55L223.97,40.46z"/>
		<path class="st0" d="M297.23,67.97V22.72h-30.69V1.74h87.27v20.98h-30.69v45.25H297.3H297.23z"/>
		<path class="st0" d="M425.96,1.68c13.63-0.12,25.21,11.33,25.02,25.02c0,4.98-1.31,9.52-3.98,13.57
			c-2.61,3.98-6.1,7.03-10.46,9.09l14.44,18.61h-27.51l-12.45-16.18h-23.09v16.18H362.1V1.68H425.96z M387.93,21.04v11.27h31.5
			c1.56,0,2.93-0.56,3.98-1.62c1.12-1.12,1.68-2.49,1.68-3.98c0-3.17-2.49-5.66-5.66-5.66L387.93,21.04L387.93,21.04z"/>
		<path class="st0" d="M547.28,32.31v4.86c0.12,25.02-20.29,32.31-45.19,32.37c-24.96,0-45.38-7.28-45.25-32.37v-4.86
			C456.71,7.22,477.13,0,502.09,0S547.28,7.28,547.28,32.31z M521.45,33.86c0.12-10.77-8.84-12.76-19.36-12.89
			c-10.58,0.12-19.55,2.12-19.42,12.89v1.62c-0.12,10.83,8.84,12.82,19.42,12.95c10.52-0.12,19.55-2.12,19.36-12.95V33.86z"/>
	</g>
	<g>
		<g>
			<path class="st0" d="M125.93,123.75c-1.74,24.09-22.91,31.31-48.55,31.31c-26.77,0-48.86-7.78-48.74-34.86v-5.23
				c-0.12-26.95,21.97-34.73,48.74-34.86c25.71,0,46.81,7.28,48.55,31.31H97.42c-2.61-7.03-10.52-8.65-20.04-8.65
				c-11.39,0.19-21.04,2.18-20.85,13.88v1.74c-0.19,11.64,9.52,13.76,20.85,13.88c9.59,0,17.49-1.68,20.04-8.71h28.51V123.75z"/>
			<path class="st0" d="M229.88,115.1v5.23c0.12,26.95-21.85,34.8-48.68,34.86c-26.89,0-48.86-7.84-48.74-34.86v-5.23
				c-0.12-27.02,21.85-34.8,48.74-34.86C208.1,80.24,229.88,88.08,229.88,115.1z M202.06,116.78c0.19-11.64-9.52-13.76-20.85-13.88
				c-11.39,0.19-21.1,2.3-20.92,13.88v1.74c-0.19,11.7,9.52,13.82,20.92,13.94c11.39-0.19,21.04-2.3,20.85-13.94V116.78z"/>
			<path class="st0" d="M265.61,81.98v48.74h55.71v22.6h-83.54V81.98C237.79,81.98,265.61,81.98,265.61,81.98z"/>
			<path class="st0" d="M420.61,115.1v5.23c0.12,26.95-21.85,34.8-48.68,34.86c-26.89,0-48.86-7.84-48.74-34.86v-5.23
				c-0.12-27.02,21.85-34.8,48.74-34.86C398.82,80.24,420.61,88.08,420.61,115.1z M392.78,116.78c0.19-11.64-9.52-13.76-20.85-13.88
				c-11.39,0.19-21.1,2.3-20.92,13.88v1.74c-0.19,11.7,9.52,13.82,20.92,13.94c11.39-0.19,21.04-2.3,20.85-13.94V116.78z"/>
			<path class="st0" d="M498.11,81.98H526v71.34h-31.31l-38.34-43.57v43.57h-27.82V81.98h38.28l31.31,37.78
				C498.11,119.76,498.11,81.98,498.11,81.98z"/>
		</g>
		<polygon class="st0" points="385.25,77.44 392.41,69.53 414.82,69.78 399.2,77.44 		"/>
	</g>
</g>
</svg>
