<?xml version="1.0" encoding="utf-8"?>
<!-- Generator: Adobe Illustrator 28.0.0, SVG Export Plug-In . SVG Version: 6.00 Build 0)  -->
<svg version="1.1" id="Capa_1" xmlns="http://www.w3.org/2000/svg" xmlns:xlink="http://www.w3.org/1999/xlink" x="0px" y="0px"
	 viewBox="0 0 657.4 660.5" style="enable-background:new 0 0 657.4 660.5;" xml:space="preserve">
<style type="text/css">
	.st0{fill:#FFFFFF;}
</style>
<path class="st0" d="M119.5,411.2C55.6,373.4,23,328.1,30,280.9c15.3,4.1,30.5,8.2,45.7,12.3c1-1.1,2-2.2,3-3.3
	c-21-23.2-40.5-47-47.2-78.5c-6.7-31.7-2.3-61.2,14-92.9c6.5,5.9,12.2,10.5,17.1,15.8c63.4,67.3,141.3,106.3,232.7,118.4
	c23.4,3.1,23.4,2.4,22.7-20.8c-1.7-58.3,24.1-101.4,75.6-126.7c51-25.1,99.6-16.2,143.2,19.5c9.1,7.5,17.6,8.7,27.9,4.9
	c20.4-7.6,40.8-15.1,63.6-23.5c-6.8,27.6-25.6,44.8-44,62.4c0.5,1.4,1.1,2.8,1.7,4.2c18.2-4.5,36.4-9,54.5-13.4
	c1.3,1.6,2.6,3.2,3.9,4.7c-15.2,15.6-29.5,32.4-46,46.6c-10.9,9.3-15.2,18.4-15.7,32.7c-5.8,152.7-74,268.3-210.9,338
	c-81.3,41.4-169.1,49.2-257.9,25.3c-30.1-8.1-58.7-21.9-87.8-33.4c-4.8-1.9-8.8-5.9-12.9-11.2c65.2,1,124.9-13.6,181.3-56.1
	c-56.7-10.6-98-36-118.5-90.7C91.9,413.6,105.7,412.4,119.5,411.2z"/>
</svg>
