<?xml version="1.0" encoding="utf-8"?>
<!-- Generator: Adobe Illustrator 28.0.0, SVG Export Plug-In . SVG Version: 6.00 Build 0)  -->
<svg version="1.1" id="Capa_1" xmlns="http://www.w3.org/2000/svg" xmlns:xlink="http://www.w3.org/1999/xlink" x="0px" y="0px"
	 viewBox="0 0 657.4 660.5" style="enable-background:new 0 0 657.4 660.5;" xml:space="preserve">
<style type="text/css">
	.st0{fill:#FFFFFF;}
</style>
<path class="st0" d="M331.3,569.5c-70.9-2.6-137.9-4.9-204.9-7.7C48.5,558.5,24,515.4,19,456.5c-6-69.9-6.7-140.4-5.9-210.5
	c0.3-29,8.5-58.6,17-86.7c11.6-38.7,42.4-57.4,80.6-60.2c145-10.8,290.1-10.6,435.2-0.2c44.8,3.2,77.8,31.6,86,75.8
	c6.8,37.1,12.1,74.9,12.6,112.5c0.7,55.3-2.4,110.8-6.2,166.1c-1.3,18.7-7.2,37.9-14.8,55.2c-15.2,34.7-45.5,50.2-81.6,52.2
	C470.5,564.6,399,566.8,331.3,569.5z M250.5,224.9c0,71.5,0,138.7,0,209.6c69.9-35.1,137.1-68.8,204.3-102.5c-0.3-2-0.7-3.9-1-5.9
	C387,292.9,320.1,259.6,250.5,224.9z"/>
</svg>
